<svg viewBox="0 0 16 16" fill="none" xmlns="http://www.w3.org/2000/svg">
<path d="M12.632 7.40801C12.3407 5.11334 10.3753 3.33334 8.00266 3.33334C6.16533 3.33334 4.56933 4.40734 3.84067 6.10001C2.40867 6.52801 1.336 7.88001 1.336 9.33334C1.336 11.1713 2.83133 12.6667 4.66933 12.6667H5.336V11.3333H4.66933C3.56666 11.3333 2.66933 10.436 2.66933 9.33334C2.66933 8.39734 3.46867 7.49534 4.45133 7.32268L4.83866 7.25468L4.96667 6.88268C5.43533 5.51534 6.59866 4.66668 8.00266 4.66668C9.84066 4.66668 11.336 6.16201 11.336 8.00001V8.66668H12.0027C12.738 8.66668 13.336 9.26468 13.336 10C13.336 10.7353 12.738 11.3333 12.0027 11.3333H10.6693V12.6667H12.0027C13.4733 12.6667 14.6693 11.4707 14.6693 10C14.6685 9.40236 14.4674 8.82222 14.0981 8.35234C13.7287 7.88246 13.2125 7.54997 12.632 7.40801Z" fill="currentColor"/>
<path d="M8.66933 9.33332V6.66666H7.336V9.33332H5.336L8.00267 12.6667L10.6693 9.33332H8.66933Z" fill="currentColor"/>
</svg>
