<svg viewBox="0 0 16 16" fill="none" xmlns="http://www.w3.org/2000/svg">
<path d="M8.72222 3.38889C8.72222 2.89797 8.32425 2.5 7.83333 2.5V2.5C7.34241 2.5 6.94444 2.89797 6.94444 3.38889V6.94444H3.38889C2.89797 6.94444 2.5 7.34241 2.5 7.83333V7.83333C2.5 8.32425 2.89797 8.72222 3.38889 8.72222H6.94444V12.2778C6.94444 12.7687 7.34241 13.1667 7.83333 13.1667V13.1667C8.32425 13.1667 8.72222 12.7687 8.72222 12.2778V8.72222H12.2778C12.7687 8.72222 13.1667 8.32425 13.1667 7.83333V7.83333C13.1667 7.34241 12.7687 6.94444 12.2778 6.94444H8.72222V3.38889Z" fill="currentColor"/>
</svg>